<svg version="1.1" id="Layer_1" xmlns="http://www.w3.org/2000/svg" xmlns:xlink="http://www.w3.org/1999/xlink" x="0px" y="0px"
	 width="100%" viewBox="0 0 256 256" enable-background="new 0 0 256 256" xml:space="preserve">
<path fill="#2e5ca0" opacity="1.000000" stroke="none" 
	d="
M1.000000,149.454102 
	C7.595622,146.912521 13.717850,143.206329 21.035130,143.606445 
	C25.050659,143.826035 28.441669,144.908844 31.218002,147.965637 
	C33.790829,150.798370 36.986763,153.129929 39.235222,156.178604 
	C43.514408,161.980713 48.415993,163.212692 55.045006,160.398315 
	C60.785290,157.961227 66.865128,156.323914 73.379829,154.136688 
	C65.856804,145.375931 60.178883,136.102661 57.088238,125.779747 
	C47.957951,95.284081 53.547207,67.993431 75.583702,44.257519 
	C99.708908,18.271826 140.574753,13.549893 170.162308,29.182337 
	C193.071014,41.286037 206.787323,60.668751 211.452103,86.373337 
	C212.568207,92.523407 212.401215,98.640785 212.228714,104.756432 
	C212.101227,109.276184 213.408752,110.806419 218.114349,110.774307 
	C227.482742,110.710358 236.552109,112.695305 245.017151,116.926781 
	C249.870499,119.352859 254.041672,122.537323 256.749756,127.780296 
	C257.000000,131.692902 257.000000,135.385818 257.000000,139.539368 
	C254.392090,145.456741 249.563446,147.359070 244.086456,149.081757 
	C225.876724,154.809265 207.823761,161.035065 189.710922,167.070541 
	C188.921448,167.333603 188.141571,167.627731 187.345047,167.866928 
	C184.167709,168.821060 181.103912,168.739807 179.910049,165.110733 
	C178.713608,161.473801 180.994659,159.715179 184.286667,158.638550 
	C203.385284,152.392578 222.453506,146.053619 241.531097,139.743301 
	C242.472656,139.431839 243.435852,139.161469 244.336884,138.756180 
	C247.136322,137.496979 249.491211,135.874542 247.620193,132.320572 
	C245.685394,128.645432 243.494415,131.100311 241.460632,132.287750 
	C235.420761,135.814148 229.246231,139.016327 222.332108,140.492615 
	C217.620331,141.498672 212.656906,143.172821 209.240906,138.014252 
	C206.411911,133.742188 207.277527,125.320251 210.861343,120.953331 
	C206.988770,119.837669 203.639709,121.425613 200.361465,122.498215 
	C170.696060,132.204483 141.070801,142.033356 111.425545,151.801315 
	C90.623505,158.655502 69.784615,165.399109 49.020531,172.366028 
	C45.044685,173.700027 42.090363,172.952393 39.001492,170.286179 
	C34.431957,166.341919 31.217487,161.226562 26.909952,157.067429 
	C21.017254,151.377762 18.964838,151.132431 11.649920,156.052429 
	C14.890251,163.498367 20.158813,169.775925 24.179964,176.787903 
	C27.067768,181.823578 30.557316,186.510468 33.642029,191.438354 
	C35.406879,194.257706 37.750732,194.956619 40.881012,194.377472 
	C60.087368,190.824097 79.284683,187.211334 98.540703,183.946838 
	C101.937225,183.371048 107.033989,181.767853 108.060081,187.241119 
	C109.062759,192.589569 103.953369,192.563126 100.634209,193.179123 
	C80.287529,196.955215 59.930981,200.702332 39.505733,204.015335 
	C33.775997,204.944687 28.835894,202.380112 25.584682,197.191437 
	C18.540295,185.949127 11.449241,174.736023 4.352998,163.526321 
	C3.467358,162.127304 2.434883,160.821259 1.235224,159.236053 
	C1.000000,155.969406 1.000000,152.938812 1.000000,149.454102 
M188.310760,66.322601 
	C183.741562,67.021065 179.179932,67.775978 174.599533,68.390999 
	C172.689484,68.647461 170.983307,69.458847 171.567245,71.427551 
	C173.615372,78.332779 172.693085,85.575241 174.264679,92.518875 
	C174.634766,94.154053 175.122620,95.510223 176.945007,95.523048 
	C185.493851,95.583183 194.043350,95.549782 202.789062,95.549782 
	C202.629303,85.620140 199.843567,77.246132 196.171814,69.032188 
	C194.596024,65.507080 192.481903,64.646233 188.310760,66.322601 
M93.650772,73.000076 
	C94.251434,70.192581 93.350891,68.763000 90.270729,68.346161 
	C85.208534,67.661057 80.197510,66.581535 75.179199,65.595558 
	C72.740913,65.116486 71.153992,65.769669 69.927849,68.115990 
	C65.880058,75.861755 63.912880,84.201134 62.538490,92.722191 
	C62.103676,95.417992 64.047043,95.630470 66.024040,95.630081 
	C73.173058,95.628700 80.322868,95.566154 87.470703,95.658043 
	C90.434868,95.696159 91.479988,94.458153 91.691521,91.516289 
	C92.117554,85.591125 92.957535,79.695724 93.650772,73.000076 
M101.117477,93.199677 
	C101.053017,95.359863 102.624260,95.579567 104.154915,95.590431 
	C111.136147,95.640007 118.117989,95.596123 125.099419,95.628693 
	C127.641022,95.640541 128.665497,94.382828 128.648560,91.929390 
	C128.609573,86.277817 128.640320,80.625748 128.647705,74.973885 
	C128.650055,73.164886 128.284317,71.348801 126.079597,71.490936 
	C119.740105,71.899643 113.546074,70.289001 107.236145,70.363228 
	C104.531075,70.395050 103.737267,71.598251 103.198639,74.204216 
	C101.950760,80.241692 101.100418,86.269730 101.117477,93.199677 
M163.107224,78.227272 
	C161.845184,70.183670 161.247452,69.442467 153.830399,70.544098 
	C149.696106,71.158150 145.607330,71.429008 141.474518,71.341728 
	C138.512207,71.279175 137.274384,72.524635 137.332016,75.497002 
	C137.438126,80.970810 137.433319,86.449532 137.330109,91.923485 
	C137.276535,94.764450 138.578186,95.706924 141.261017,95.667915 
	C147.565292,95.576263 153.874954,95.513939 160.176102,95.679665 
	C163.761215,95.773964 164.975327,94.121330 164.646378,90.844978 
	C164.250946,86.906494 163.826187,82.970955 163.107224,78.227272 
M64.172913,115.568466 
	C65.687874,122.416901 68.505508,128.693954 71.844437,134.864319 
	C74.431984,139.646149 77.713394,139.144287 81.628693,137.890808 
	C81.985802,135.757248 80.429466,134.964767 79.578468,133.841980 
	C75.670822,128.686340 76.960922,123.845505 82.893188,121.682571 
	C92.343933,118.236786 92.234680,118.242775 91.695534,108.376076 
	C91.527817,105.306709 90.257210,104.305443 87.394615,104.360046 
	C82.410896,104.455093 77.423912,104.364365 72.438385,104.381096 
	C59.639023,104.424049 62.379074,103.721420 64.172913,115.568466 
M158.592621,126.063248 
	C160.872284,125.565536 162.828979,124.354660 163.164322,122.027069 
	C163.846054,117.295181 164.967789,112.603554 164.668961,107.742516 
	C164.504150,105.061562 163.023392,104.399330 160.736725,104.402863 
	C154.254852,104.412888 147.772629,104.427032 141.291153,104.370132 
	C138.630447,104.346779 137.294250,105.389915 137.342834,108.199417 
	C137.429016,113.183998 137.440598,118.172897 137.328568,123.156509 
	C137.278458,125.385109 138.432938,126.185989 140.256256,127.122948 
	C146.351196,130.254990 152.103317,128.755585 158.592621,126.063248 
M128.656784,50.448551 
	C128.656784,44.035934 128.656784,37.623314 128.656784,31.138182 
	C125.551956,31.169905 123.852905,32.452961 122.227310,33.879810 
	C117.135834,38.348801 113.306572,43.796677 110.651718,49.953815 
	C105.631874,61.595860 105.746277,61.692806 118.622475,61.638847 
	C129.969894,61.591297 128.534668,62.979404 128.656784,50.448551 
M128.660324,111.663574 
	C128.077744,109.190872 130.316422,104.956520 126.150749,104.675117 
	C117.796806,104.110794 109.377953,104.507469 100.941200,104.507469 
	C101.104439,107.783119 101.576302,110.290306 101.269295,112.698189 
	C100.791061,116.449074 102.782158,117.685516 105.861450,118.384247 
	C109.736511,119.263557 113.594688,120.223457 117.440788,121.223053 
	C128.671768,124.141945 128.667999,124.156456 128.660324,111.663574 
M150.183075,61.647945 
	C152.845764,61.706493 155.502502,61.739342 157.725281,59.918503 
	C157.116455,49.256699 146.489456,33.842133 137.349457,31.114885 
	C137.349457,37.366226 137.349976,43.438095 137.349350,49.509968 
	C137.348114,61.651516 137.347855,61.651516 150.183075,61.647945 
M183.439590,117.743851 
	C187.707581,116.389816 191.921356,114.819939 196.256027,113.731438 
	C203.063324,112.021996 203.097839,112.159431 202.362900,104.416946 
	C194.109924,104.416946 185.818192,104.408722 177.526489,104.426033 
	C176.317184,104.428551 174.907974,104.688545 174.696869,105.995850 
	C173.930542,110.741615 172.066788,115.520355 174.429291,120.734413 
	C177.381668,119.762268 180.038666,118.887383 183.439590,117.743851 
M110.688156,141.715591 
	C117.085213,139.598389 123.482269,137.481201 130.218765,135.251648 
	C117.744896,128.256561 97.836967,125.770859 91.015335,130.421371 
	C96.300369,134.307648 101.474693,138.129166 106.671402,141.920013 
	C107.732903,142.694336 108.875366,142.445602 110.688156,141.715591 
M99.587456,38.234497 
	C91.614754,42.849968 83.608986,47.428528 79.007523,56.433563 
	C84.140785,58.393639 89.230621,58.804741 94.231430,59.531872 
	C96.110428,59.805088 97.226349,58.577339 97.762390,56.726555 
	C99.929924,49.242855 103.790535,42.485661 107.626221,34.582062 
	C104.654076,36.020115 102.166847,36.191399 99.587456,38.234497 
M159.681641,38.352757 
	C162.881073,43.969631 165.796753,49.701168 167.574310,55.970261 
	C167.990891,57.439449 168.313797,59.655689 170.486816,59.493797 
	C176.116501,59.074368 181.754639,58.500832 187.400650,56.152550 
	C180.340195,47.289490 172.090164,41.048759 162.637695,36.347805 
	C161.311371,35.688194 158.874939,33.646999 159.681641,38.352757 
M233.191528,122.647514 
	C227.736389,125.090698 222.281265,127.533875 216.062576,130.319031 
	C217.585144,131.024536 218.211502,131.597519 218.717804,131.506027 
	C224.330170,130.492035 229.435989,128.113327 234.313751,125.276695 
	C235.769562,124.430069 235.134781,123.344643 233.191528,122.647514 
M86.656425,149.736679 
	C88.217110,149.389267 89.903755,149.273590 90.887955,147.423416 
	C87.643333,145.046417 84.990486,147.966354 81.329544,147.682617 
	C83.088539,149.540283 83.982521,151.034393 86.656425,149.736679 
z"/>
<path fill="#2e5ca0" opacity="1.000000" stroke="none" 
	d="
M183.848694,139.661285 
	C189.616669,141.080566 190.301865,143.675690 186.676788,149.271210 
	C181.259491,157.633179 175.747940,165.934036 170.328812,174.294846 
	C160.667816,189.200134 150.844376,204.005920 141.493225,219.103745 
	C136.852341,226.596634 130.721588,231.539062 122.312172,233.883057 
	C118.000313,235.084915 113.775238,236.604996 109.449188,237.747345 
	C103.818115,239.234283 99.603806,235.768234 99.632294,230.025909 
	C99.646004,227.263397 100.787582,224.856171 101.616531,222.346878 
	C108.026588,202.943100 114.501656,183.560669 120.854393,164.138214 
	C121.858910,161.067093 123.445328,158.849182 126.580292,157.805283 
	C144.377686,151.879028 162.161606,145.912277 179.967804,140.012726 
	C181.040283,139.657379 182.265503,139.763062 183.848694,139.661285 
M170.503616,156.449600 
	C171.149490,155.569077 172.324280,154.807678 170.987823,153.253021 
	C158.461563,157.319962 145.850754,161.404861 133.247940,165.514236 
	C130.769379,166.322433 129.860657,168.308121 129.067230,170.665283 
	C124.674843,183.714554 120.077477,196.694687 115.635880,209.727646 
	C113.742958,215.282028 112.057602,220.907135 110.066330,227.165039 
	C120.317986,224.688263 128.683777,221.932861 134.260696,212.680389 
	C145.657837,193.771774 158.058655,175.468140 170.503616,156.449600 
z"/>
</svg>